<?xml version="1.0" encoding="UTF-8"?>
<svg data-name="brand:qiita" xmlns="http://www.w3.org/2000/svg" viewBox="0 0 300 300">
  <g id="favicon">
    <g>
      <path d="M222.77,227.36c-16.18,17.26-38.17,22.94-64.78,25.63-53.89,5.45-100.57-18.62-106.22-78.74-2.4-25.56,3.29-49.86,14.76-69.77l-6.68-26.26c-1.08-4.56,3.12-8.91,7.57-7.83l23.07,5.6c13.72-11.26,30.31-18.62,48.62-20.48,15.66-1.58,30.84,1.04,44.64,7.03l21.68-13.12c4.08-2.47,9.25.32,9.64,5.2l1.25,30.94h0c16.68,17.61,28.03,41.65,30.6,68.95,1.45,15.42-.15,27.22-4.24,38.47-1.91,5.27-2.49,9.72.97,14.13,3.34,4.26,8.64,12.53,14.55,11.14,8.88-2.08,18.4-1.53,24.28,2.14,11.18-20.99,17.53-44.96,17.53-70.4C300,67.16,232.84,0,150,0S0,67.16,0,150s67.16,150,150,150c42.48,0,80.83-17.66,108.12-46.04-4.79-.72-9.68-2.58-14.33-5.68-8.93-5.95-16.86-11.58-21.02-20.92Z" fill="#55c500" stroke-width="0"/>
      <path d="M208.92,117.38l14.01-1.72-.2-2.52-14.37,1.76c-.62-1.82-1.31-3.59-2.08-5.32l15.83-5.05-.5-3.17-16.84,5.83c-11.3-23.68-35.72-38.06-63.37-35.26-27.6,2.79-49.46,22.67-56.17,48.11l-16.47-2.49-.18,3.24,16.22,1.76c-.44,1.87-.8,2.98-1.07,4.9l-14.15,1.13.13,2.53,13.79-1.1c-.24,2.14-.39,3.52-.42,5.71l-12.6,5.15.62,3.12,12-5.61c.03,1.67.1,2.57.26,4.26,3.33,35.46,32.96,42.48,68.35,38.9,35.39-3.58,63.15-16.39,59.81-51.86-.16-1.7-.4-2.59-.69-4.24l13,2.82.3-2.86-13.63-2.59c-.43-2.11-.96-3.39-1.58-5.41Z" fill="#55c500" stroke-width="0"/>
    </g>
  </g>
</svg>
